# xmcd
#
# Track frame offsets: 
#        150
#        23012
#        43519
#        73821
#        87418
#        116716
#        147449
#        168486
#        196336
#        225704
#
# Disc length: 3268 seconds
#
# Revision: 0
# Processed by: cddbd v1.5.2PL0 Copyright (c) Steve Scherf et al.
# Submitted via: ExactAudioCopy v1.0b4
#
DISCID=8a0cc20a
DTITLE=Ford Blues Band - In Concert - Ohne Filter 8.8.1998
DYEAR=1900
DGENRE=Blues
TTITLE0=It's Hot
TTITLE1=Watch Yourself
TTITLE2=She's Sweet
TTITLE3=Don't Cry
TTITLE4=Crazy For My Baby
TTITLE5=I Smell Trouble
TTITLE6=Lovin' Cup
TTITLE7=Bring It to Jerome
TTITLE8=Cadillac
TTITLE9=Tell Me Mama
EXTD=
EXTT0=
EXTT1=
EXTT2=
EXTT3=
EXTT4=
EXTT5=
EXTT6=
EXTT7=
EXTT8=
EXTT9=
PLAYORDER=
